<?xml version="1.0" encoding="UTF-8" standalone="no"?>
<!DOCTYPE svg PUBLIC "-//W3C//DTD SVG 1.0//EN" "http://www.w3.org/TR/2001/PR-SVG-20010719/DTD/svg10.dtd">
<svg width="100%" height="100%" viewBox="281 89 604 343" xmlns="http://www.w3.org/2000/svg" xmlns:xlink="http://www.w3.org/1999/xlink">
  <g>
    <rect style="fill: #ffffff" x="282.47" y="90.152" width="601.702" height="340.651"/>
    <rect style="fill: none; fill-opacity:0; stroke-width: 2; stroke: #000000" x="282.47" y="90.152" width="601.702" height="340.651"/>
    <text font-size="28.2222" style="fill: #000000;text-anchor:middle;font-family:monospace;font-style:normal;font-weight:normal" x="583.321" y="121.327">
      <tspan x="583.321" y="121.327">Finite State Status Changes</tspan>
      <tspan x="583.321" y="156.605"></tspan>
      <tspan x="583.321" y="191.883"></tspan>
      <tspan x="583.321" y="227.161"></tspan>
      <tspan x="583.321" y="262.439"></tspan>
      <tspan x="583.321" y="297.716"></tspan>
      <tspan x="583.321" y="332.994"></tspan>
      <tspan x="583.321" y="368.272"></tspan>
      <tspan x="583.321" y="403.55"></tspan>
    </text>
  </g>
  <g>
    <rect style="fill: #ffffff" x="293.932" y="224.884" width="581.579" height="115.592"/>
    <rect style="fill: none; fill-opacity:0; stroke-width: 2; stroke: #000000" x="293.932" y="224.884" width="581.579" height="115.592"/>
    <text font-size="12.8" style="fill: #000000;text-anchor:middle;font-family:sans-serif;font-style:normal;font-weight:normal" x="584.721" y="288.38">
      <tspan x="584.721" y="288.38"></tspan>
    </text>
  </g>
  <g>
    <rect style="fill: #ffffff" x="318.954" y="144.372" width="140.437" height="61.6024"/>
    <rect style="fill: none; fill-opacity:0; stroke-width: 2; stroke-dasharray: 4; stroke: #000000" x="318.954" y="144.372" width="140.437" height="61.6024"/>
    <text font-size="22.5778" style="fill: #000000;text-anchor:middle;font-family:monospace;font-style:normal;font-weight:normal" x="389.172" y="176.762">
      <tspan x="389.172" y="176.762">search</tspan>
    </text>
  </g>
  <g>
    <rect style="fill: #ffffff" x="495.418" y="144.35" width="161.25" height="61.3246"/>
    <rect style="fill: none; fill-opacity:0; stroke-width: 2; stroke: #000000" x="495.418" y="144.35" width="161.25" height="61.3246"/>
    <text font-size="22.5778" style="fill: #000000;text-anchor:middle;font-family:monospace;font-style:normal;font-weight:normal" x="576.043" y="176.601">
      <tspan x="576.043" y="176.601">selected</tspan>
    </text>
  </g>
  <g>
    <line style="fill: none; fill-opacity:0; stroke-width: 2; stroke: #000000" x1="459.39" y1="175.172" x2="483.182" y2="175.066"/>
    <polygon style="fill: #ffffff" points="483.204,180.066 493.182,175.022 483.16,170.066 "/>
    <polygon style="fill: none; fill-opacity:0; stroke-width: 2; stroke: #000000" points="483.204,180.066 493.182,175.022 483.16,170.066 "/>
  </g>
  <g>
    <rect style="fill: #ffffff" x="683.81" y="144.616" width="174.466" height="61.0588"/>
    <rect style="fill: none; fill-opacity:0; stroke-width: 2; stroke: #000000" x="683.81" y="144.616" width="174.466" height="61.0588"/>
    <text font-size="22.5778" style="fill: #000000;text-anchor:middle;font-family:monospace;font-style:normal;font-weight:normal" x="771.043" y="176.734">
      <tspan x="771.043" y="176.734">paid</tspan>
    </text>
  </g>
  <g>
    <line style="fill: none; fill-opacity:0; stroke-width: 2; stroke: #000000" x1="656.668" y1="175.012" x2="671.574" y2="175.086"/>
    <polygon style="fill: #ffffff" points="671.549,180.086 681.574,175.135 671.599,170.086 "/>
    <polygon style="fill: none; fill-opacity:0; stroke-width: 2; stroke: #000000" points="671.549,180.086 681.574,175.135 671.599,170.086 "/>
  </g>
  <g>
    <rect style="fill: #ffffff" x="683.068" y="267.85" width="175.889" height="58.9981"/>
    <rect style="fill: none; fill-opacity:0; stroke-width: 2; stroke: #000000" x="683.068" y="267.85" width="175.889" height="58.9981"/>
    <text font-size="22.5778" style="fill: #000000;text-anchor:middle;font-family:monospace;font-style:normal;font-weight:normal" x="771.013" y="298.938">
      <tspan x="771.013" y="298.938">registering</tspan>
    </text>
  </g>
  <g>
    <line style="fill: none; fill-opacity:0; stroke-width: 2; stroke: #000000" x1="771.042" y1="205.674" x2="771.018" y2="255.614"/>
    <polygon style="fill: #ffffff" points="766.018,255.612 771.013,265.614 776.018,255.616 "/>
    <polygon style="fill: none; fill-opacity:0; stroke-width: 2; stroke: #000000" points="766.018,255.612 771.013,265.614 776.018,255.616 "/>
  </g>
  <g>
    <rect style="fill: #ffffff" x="495.278" y="267.542" width="162.685" height="59.5798"/>
    <rect style="fill: none; fill-opacity:0; stroke-width: 2; stroke: #000000" x="495.278" y="267.542" width="162.685" height="59.5798"/>
    <text font-size="22.5778" style="fill: #000000;text-anchor:middle;font-family:monospace;font-style:normal;font-weight:normal" x="576.62" y="298.921">
      <tspan x="576.62" y="298.921">registered</tspan>
    </text>
  </g>
  <g>
    <line style="fill: none; fill-opacity:0; stroke-width: 2; stroke: #000000" x1="683.068" y1="297.35" x2="670.2" y2="297.341"/>
    <polygon style="fill: #ffffff" points="670.204,292.341 660.2,297.334 670.196,302.341 "/>
    <polygon style="fill: none; fill-opacity:0; stroke-width: 2; stroke: #000000" points="670.204,292.341 660.2,297.334 670.196,302.341 "/>
  </g>
  <g>
    <rect style="fill: #ffffff" x="319.086" y="267.686" width="140.841" height="59.5798"/>
    <rect style="fill: none; fill-opacity:0; stroke-width: 2; stroke: #000000" x="319.086" y="267.686" width="140.841" height="59.5798"/>
    <text font-size="22.5778" style="fill: #000000;text-anchor:middle;font-family:monospace;font-style:normal;font-weight:normal" x="389.506" y="299.065">
      <tspan x="389.506" y="299.065">renew</tspan>
    </text>
  </g>
  <g>
    <line style="fill: none; fill-opacity:0; stroke-width: 2; stroke: #000000" x1="495.278" y1="297.332" x2="472.162" y2="297.426"/>
    <polygon style="fill: #ffffff" points="472.142,292.426 462.162,297.467 472.182,302.426 "/>
    <polygon style="fill: none; fill-opacity:0; stroke-width: 2; stroke: #000000" points="472.142,292.426 462.162,297.467 472.182,302.426 "/>
  </g>
  <g>
    <polyline style="fill: none; fill-opacity:0; stroke-width: 2; stroke: #000000" points="389.506,267.686 389.506,246.686 771.013,246.686 771.013,255.614 "/>
    <polygon style="fill: #ffffff" points="766.013,255.614 771.013,265.614 776.013,255.614 "/>
    <polygon style="fill: none; fill-opacity:0; stroke-width: 2; stroke: #000000" points="766.013,255.614 771.013,265.614 776.013,255.614 "/>
  </g>
  <g>
    <rect style="fill: #ffffff" x="494.892" y="359.934" width="163.295" height="59.5798"/>
    <rect style="fill: none; fill-opacity:0; stroke-width: 2; stroke: #000000" x="494.892" y="359.934" width="163.295" height="59.5798"/>
    <text font-size="22.5778" style="fill: #000000;text-anchor:middle;font-family:monospace;font-style:normal;font-weight:normal" x="576.54" y="391.313">
      <tspan x="576.54" y="391.313">expired</tspan>
    </text>
  </g>
  <g>
    <rect style="fill: #ffffff" x="319.086" y="359.934" width="141.107" height="59.5798"/>
    <rect style="fill: none; fill-opacity:0; stroke-width: 2; stroke: #000000" x="319.086" y="359.934" width="141.107" height="59.5798"/>
    <text font-size="22.5778" style="fill: #000000;text-anchor:middle;font-family:monospace;font-style:normal;font-weight:normal" x="389.639" y="391.313">
      <tspan x="389.639" y="391.313">free</tspan>
    </text>
  </g>
  <g>
    <line style="fill: none; fill-opacity:0; stroke-width: 2; stroke: #000000" x1="494.892" y1="389.724" x2="472.428" y2="389.724"/>
    <polygon style="fill: #ffffff" points="472.428,384.724 462.428,389.724 472.428,394.724 "/>
    <polygon style="fill: none; fill-opacity:0; stroke-width: 2; stroke: #000000" points="472.428,384.724 462.428,389.724 472.428,394.724 "/>
  </g>
  <g>
    <line style="fill: none; fill-opacity:0; stroke-width: 2; stroke: #000000" x1="576.62" y1="327.122" x2="576.57" y2="347.698"/>
    <polygon style="fill: #ffffff" points="571.57,347.686 576.545,357.698 581.57,347.71 "/>
    <polygon style="fill: none; fill-opacity:0; stroke-width: 2; stroke: #000000" points="571.57,347.686 576.545,357.698 581.57,347.71 "/>
  </g>
  <g>
    <rect style="fill: #ffffff" x="683.81" y="356.918" width="174.252" height="61.6024"/>
    <rect style="fill: none; fill-opacity:0; stroke-width: 2; stroke-dasharray: 4; stroke: #000000" x="683.81" y="356.918" width="174.252" height="61.6024"/>
    <text font-size="22.5778" style="fill: #000000;text-anchor:middle;font-family:monospace;font-style:normal;font-weight:normal" x="770.936" y="389.308">
      <tspan x="770.936" y="389.308">reg error</tspan>
    </text>
  </g>
  <g>
    <line style="fill: none; fill-opacity:0; stroke-width: 2; stroke: #000000" x1="771.012" y1="326.848" x2="770.967" y2="344.682"/>
    <polygon style="fill: #ffffff" points="765.967,344.669 770.942,354.682 775.967,344.695 "/>
    <polygon style="fill: none; fill-opacity:0; stroke-width: 2; stroke: #000000" points="765.967,344.669 770.942,354.682 775.967,344.695 "/>
  </g>
</svg>
