<?xml version="1.0" encoding="UTF-8" standalone="no"?>
<!DOCTYPE svg PUBLIC "-//W3C//DTD SVG 1.0//EN" "http://www.w3.org/TR/2001/PR-SVG-20010719/DTD/svg10.dtd">
<svg width="100%" height="100%" viewBox="299 111 1147 122" xmlns="http://www.w3.org/2000/svg" xmlns:xlink="http://www.w3.org/1999/xlink">
  <g class="ft-fragment">

    <g>
      <rect style="fill: #ffffff" x="300.9" y="112.659" width="1144.32" height="119.268" />
      <rect style="fill: none; fill-opacity:0; stroke-width: 2; stroke: #000000" x="300.9" y="112.659" width="1144.32" height="119.268"
      />
      <text font-size="12.7998" style="fill: #000000;text-anchor:middle;font-family:sans-serif;font-style:normal;font-weight:normal"
        x="873.06" y="177.993">
        <tspan x="873.06" y="177.993"></tspan>
      </text>
    </g>
    <g>
      <rect style="fill: #ffffff" x="318.954" y="144.372" width="140.437" height="61.6024" />
      <rect style="fill: none; fill-opacity:0; stroke-width: 2; stroke-dasharray: 4; stroke: #000000" x="318.954" y="144.372" width="140.437"
        height="61.6024" />
      <text font-size="22.5778" style="fill: #000000;text-anchor:middle;font-family:monospace;font-style:normal;font-weight:normal"
        x="389.172" y="176.762">
        <tspan x="389.172" y="176.762">search</tspan>
      </text>
    </g>
  </g>

  <g class="ft-fragment">
    <g>
      <rect style="fill: #ffffff" x="495.418" y="144.56" width="161.25" height="61.3246" />
      <rect style="fill: none; fill-opacity:0; stroke-width: 2; stroke: #000000" x="495.418" y="144.56" width="161.25" height="61.3246"
      />
      <text font-size="22.5778" style="fill: #000000;text-anchor:middle;font-family:monospace;font-style:normal;font-weight:normal"
        x="576.043" y="176.811">
        <tspan x="576.043" y="176.811">selected</tspan>
      </text>
    </g>
    <g>
      <line style="fill: none; fill-opacity:0; stroke-width: 2; stroke: #000000" x1="459.39" y1="175.172" x2="483.182" y2="175.205"
      />
      <polygon style="fill: #ffffff" points="483.175,180.205 493.182,175.219 483.189,170.205 " />
      <polygon style="fill: none; fill-opacity:0; stroke-width: 2; stroke: #000000" points="483.175,180.205 493.182,175.219 483.189,170.205 "
      />
    </g>
    <g>

      <g class="ft-fragment">
        <g>
          <rect style="fill: #ffffff" x="683.81" y="144.616" width="174.466" height="61.0588" />
          <rect style="fill: none; fill-opacity:0; stroke-width: 2; stroke: #000000" x="683.81" y="144.616" width="174.466" height="61.0588"
          />
          <text font-size="22.5778" style="fill: #000000;text-anchor:middle;font-family:monospace;font-style:normal;font-weight:normal"
            x="771.043" y="176.734">
            <tspan x="771.043" y="176.734">paid</tspan>
          </text>
        </g>
        <g>
          <line style="fill: none; fill-opacity:0; stroke-width: 2; stroke: #000000" x1="656.668" y1="175.223" x2="671.574" y2="175.18"
          />
          <polygon style="fill: #ffffff" points="671.588,180.18 681.574,175.152 671.56,170.18 " />
          <polygon style="fill: none; fill-opacity:0; stroke-width: 2; stroke: #000000" points="671.588,180.18 681.574,175.152 671.56,170.18 "
          />
        </g>
      </g>

      <g class="ft-fragment">
        <g>
          <rect style="fill: #ffffff" x="887.881" y="145.467" width="175.889" height="58.9981" />
          <rect style="fill: none; fill-opacity:0; stroke-width: 2; stroke: #000000" x="887.881" y="145.467" width="175.889" height="58.9981"
          />
          <text font-size="22.5778" style="fill: #000000;text-anchor:middle;font-family:monospace;font-style:normal;font-weight:normal"
            x="975.825" y="176.554">
            <tspan x="975.825" y="176.554">registering</tspan>
          </text>
        </g>
        <g>
          <line style="fill: none; fill-opacity:0; stroke-width: 2; stroke: #000000" x1="858.276" y1="175.145" x2="875.645" y2="175.04"
          />
          <polygon style="fill: #ffffff" points="875.675,180.04 885.645,174.979 875.614,170.04 " />
          <polygon style="fill: none; fill-opacity:0; stroke-width: 2; stroke: #000000" points="875.675,180.04 885.645,174.979 875.614,170.04 "
          />
        </g>
      </g>

      <g class="ft-fragment">
        <g>
          <rect style="fill: #ffffff" x="1093.57" y="145.242" width="162.685" height="59.5798" />
          <rect style="fill: none; fill-opacity:0; stroke-width: 2; stroke: #000000" x="1093.57" y="145.242" width="162.685" height="59.5798"
          />
          <text font-size="22.5778" style="fill: #000000;text-anchor:middle;font-family:monospace;font-style:normal;font-weight:normal"
            x="1174.92" y="176.62">
            <tspan x="1174.92" y="176.62">registered</tspan>
          </text>
        </g>
        <g>
          <line style="fill: none; fill-opacity:0; stroke-width: 2; stroke: #000000" x1="1063.77" y1="174.966" x2="1081.34" y2="175.004"
          />
          <polygon style="fill: #ffffff" points="1081.33,180.004 1091.34,175.026 1081.35,170.004 " />
          <polygon style="fill: none; fill-opacity:0; stroke-width: 2; stroke: #000000" points="1081.33,180.004 1091.34,175.026 1081.35,170.004 "
          />
        </g>
      </g>
      <g class="ft-fragment">
        <g>
          <rect style="fill: #ffffff" x="1287.73" y="145.158" width="140.841" height="59.5798" />
          <rect style="fill: none; fill-opacity:0; stroke-width: 2; stroke: red" x="1287.73" y="145.158" width="140.841" height="59.5798"
          />
          <text font-size="22.5778" style="fill: red;text-anchor:middle;font-family:monospace;font-style:normal;font-weight:normal"
            x="1358.15" y="176.536">
            <tspan x="1358.15" y="176.536">renew</tspan>
          </text>
        </g>
        <g>
          <line style="fill: none; fill-opacity:0; stroke-width: 2; stroke: #000000" x1="1256.26" y1="175.031" x2="1275.5" y2="174.98"
          />
          <polygon style="fill: #ffffff" points="1275.51,179.98 1285.5,174.953 1275.49,169.98 " />
          <polygon style="fill: none; fill-opacity:0; stroke-width: 2; stroke: #000000" points="1275.51,179.98 1285.5,174.953 1275.49,169.98 "
          />
        </g>
      </g>

</svg>
