<?xml version="1.0" encoding="UTF-8"?>
<svg width="80px" height="34px" viewBox="0 0 80 34" version="1.1" xmlns="http://www.w3.org/2000/svg" xmlns:xlink="http://www.w3.org/1999/xlink">
    <!-- Generator: Sketch 45.2 (43514) - http://www.bohemiancoding.com/sketch -->
    <title>ukit-logo</title>
    <desc>Created with Sketch.</desc>
    <defs></defs>
    <g id="Home" stroke="none" stroke-width="1" fill="none" fill-rule="evenodd">
        <g id="Main-Page_new" transform="translate(-42.000000, -36.000000)" fill-rule="nonzero" fill="#FFFFFF">
            <g id="First-scrin" transform="translate(-76.000000, 36.000000)">
                <g id="Header" transform="translate(118.000000, 0.000000)">
                    <g id="ukit-logo">
                        <path d="M79.9988001,14.7205923 L73.822836,14.7205923 L73.822836,26.4788868 C73.822836,29.1918015 74.8031668,30.2872224 77.1070042,30.2872224 C77.9397454,30.2872224 79.0184693,30.0961064 79.8032139,29.7150398 L79.9508035,33.3812037 C78.8720796,33.761105 77.45018,34 76.0294803,34 C71.6677882,34 69.2667576,31.6192076 69.2667576,26.9496847 L69.2667576,14.7170962 L64.8066725,14.7170962 L64.8066725,11.0520976 L69.2667576,11.0520976 L69.2667576,4.57746093 L73.824036,4.57746093 L73.824036,11.0520976 L80,11.0520976 L80,14.7170962 M59.7502294,33.614272 L55.1437546,33.614272 L55.1437546,11.0509323 L59.7502294,11.0509323 L59.7502294,33.614272 M57.446392,5.76727447 C55.7797097,5.76727447 54.4082065,4.48190293 54.4082065,2.91102276 C54.4082065,1.29236359 55.7809096,0.00699204826 57.446392,0.00699204826 C59.1130744,0.00699204826 60.534974,1.24574993 60.534974,2.91102276 C60.534974,4.52968193 59.1130744,5.76727447 57.446392,5.76727447 M33.6064748,20.7069509 L33.7528645,20.7069509 L43.5057761,11.0509323 L49.3421641,11.0509323 L38.7637108,21.2849602 L50.5384796,33.6131067 L44.2425241,33.6131067 L33.7528645,22.0902111 L33.6064748,22.0902111 L33.6064748,33.6131067 L29,33.6131067 L29,0 L33.6064748,0 L33.6064748,20.7057856" id="Shape"></path>
                        <path d="M17.4138287,33.3860963 C17.3104002,32.2519353 17.208233,30.6472303 17.208233,29.7026742 L17.1048045,29.7026742 C15.8674464,32.0634865 12.6737759,34 9.11936705,34 C2.83419333,34 0,29.891123 0,24.885091 L0,11 L4.84348125,11 L4.84348125,23.3728762 C4.84348125,27.0562984 5.92569659,30.2680205 10.4071781,30.2680205 C14.2718725,30.2680205 16.9509231,27.3407057 16.9509231,22.9011762 L16.9509231,11 L21.793143,11 L21.793143,28.5685131 C21.793143,29.7489193 21.8448572,31.9212828 22,33.3849402 L17.4138287,33.3849402" id="Shape"></path>
                    </g>
                </g>
            </g>
        </g>
    </g>
</svg>